<svg id="visual" viewBox="0 0 900 600" width="900" height="600" xmlns="http://www.w3.org/2000/svg" xmlns:xlink="http://www.w3.org/1999/xlink" version="1.1"><path d="M0 73L82 103L164 157L245 61L327 61L409 61L491 157L573 67L655 73L736 121L818 55L900 121L900 0L818 0L736 0L655 0L573 0L491 0L409 0L327 0L245 0L164 0L82 0L0 0Z" fill="#038373"></path><path d="M0 319L82 199L164 259L245 337L327 331L409 181L491 325L573 349L655 283L736 289L818 205L900 367L900 119L818 53L736 119L655 71L573 65L491 155L409 59L327 59L245 59L164 155L82 101L0 71Z" fill="#00957c"></path><path d="M0 445L82 433L164 457L245 505L327 433L409 433L491 433L573 457L655 481L736 439L818 445L900 445L900 365L818 203L736 287L655 281L573 347L491 323L409 179L327 329L245 335L164 257L82 197L0 317Z" fill="#00a784"></path><path d="M0 559L82 535L164 523L245 553L327 559L409 547L491 553L573 541L655 529L736 523L818 535L900 535L900 443L818 443L736 437L655 479L573 455L491 431L409 431L327 431L245 503L164 455L82 431L0 443Z" fill="#00b98a"></path><path d="M0 601L82 601L164 601L245 601L327 601L409 601L491 601L573 601L655 601L736 601L818 601L900 601L900 533L818 533L736 521L655 527L573 539L491 551L409 545L327 557L245 551L164 521L82 533L0 557Z" fill="#00cc8e"></path></svg>